<?xml version="1.0" encoding="utf-8"?>
<!-- Generator: Adobe Illustrator 23.0.1, SVG Export Plug-In . SVG Version: 6.00 Build 0)  -->
<svg version="1.1" id="Layer_1" xmlns="http://www.w3.org/2000/svg" xmlns:xlink="http://www.w3.org/1999/xlink" x="0px" y="0px"
	 viewBox="0 0 200 200" style="enable-background:new 0 0 200 200;" xml:space="preserve">
<style type="text/css">
	.st0{fill:#AB55CD;}
	.st1{fill:#FFCA3A;}
	.st2{fill:#FFFFFF;}
	.st3{fill:#FF4A58;}
	.st4{fill:#85D600;}
	.st5{fill:#00CBE7;}
	.st6{fill:#F7B010;}
	.st7{fill:#EC303E;}
	.st8{fill:#70BF00;}
	.st9{fill:#00B4CD;}
	.st10{fill:none;}
	.st11{fill:#62308A;}
</style>
<g>
	<path class="st0" d="M100.9,20.4c2.5,1.4,5,2.9,7.5,4.5c5.6,3.6,11.1,7.5,16.4,11.7c10.6,8.5,20.3,18.2,29.1,29
		c17.3,21.2,32.4,47.3,36.8,76.2c0.7,4.5,6.2,47.2,3.2,47.7c-2,0.3-7.3-13.5-8.3-15.7c-0.7-3.3-3.4-6.9-4.8-9.9
		c-1.5-3.1-3-6.2-4.6-9.2c-3.4-6.3-7.4-11.1-12.1-16.3c-8.3-9.2-17.2-17.8-26-26.4c-5.5-5.3-10.9-10.6-16.7-15.4
		c-5-4.1-10.2-7.9-15-12.3c-3.1-2.9-7.2-6.7-8.6-11.2c-0.2-0.8-0.2-1.7-0.2-2.5c0.3-9.1,1.7-17.6,0.9-26.9c-0.9-9.3-3-18.4-6.3-26.9
		c2.9-0.2,5.2,1.4,7.7,2.8C100.2,20,100.6,20.2,100.9,20.4z"/>
	<g>
		<path class="st1" d="M96.4,80c1.7-7.9,3.5-16.1,3-24.2c-0.3-4.7-1.3-9.3-2.3-13.8c-1.4-6.1-2.7-12.3-4.1-18.4
			c-1-4.3-2.1-9-5.4-11.4c-2-1.5-4.4-1.8-6.7-2.2C66.2,7.8,51.5,5.7,36.7,6.1C24.2,6.5,11.6,8.7,0,13.8v60.3
			C11.9,65.3,26.3,61,40.6,61.3c9.2,0.2,17.9,2.5,26.4,6.2c8.9,3.9,17.9,6.3,26.3,11.9c0.9,0.6,2,1.3,3.1,1.1c1.1-0.2,2-1.7,1.3-2.7
			L96.4,80z"/>
	</g>
	<g>
		<path class="st2" d="M61.2,20.6c23.7,3.6,46.4,14.7,64.3,32.8c8.4,8.5,15.6,18.4,21.5,29.2c6.2,11.4,9.6,23.6,14.1,35.8
			c0.7,2,2-0.1,1.8-1.4c-3.3-25.3-18.8-50-35.2-66.6C109.2,31.5,86,20.2,61.2,17.3C59.9,17.1,59.9,20.4,61.2,20.6L61.2,20.6z"/>
		<path class="st2" d="M165.6,130.3c0.4,2.9,0.7,5.9,0.9,8.8c0.1,0.9,0.3,2.3,1.3,2.5c0.9,0.2,1.5-1,1.6-1.9
			c0.4-3.8,0.2-7.3-0.4-11.1c-0.2-1.2-1.1-2.6-2.3-2.1C165.6,127,165.5,129.1,165.6,130.3L165.6,130.3z"/>
	</g>
	<g>
		<path class="st3" d="M92.9,78.5c-0.9-2-2.9-3-4.7-3.9C76.4,69.3,64.1,64.9,51.5,63C40,61.2,28,61.6,17,65.7
			C11.1,68,5.5,71.2,0,74.6V203h8.1c0.8-1.1,1.6-2.3,2.3-3.5c4.2-6.6,7.9-13.3,12.1-19.8c12.1-18.5,24.5-36.7,37-54.9
			c8.8-12.7,17.6-25.5,28.6-35.7C91.1,86.4,94.5,82.3,92.9,78.5z"/>
	</g>
	<g>
		<path class="st4" d="M112.2,138.3c-1.4-10.3-3.3-20.6-5.4-30.7c-1.2-5.8-2.6-11.5-4.5-17.1c-1.4-3.8-4.5-15-8.8-10
			c-16.2,18.7-32.7,36.6-47.3,57c-14.2,20.1-24.5,42.9-35.4,65.4h103.9C116.3,181.5,115.1,159.7,112.2,138.3z"/>
	</g>
	<g>
		<path class="st5" d="M194.4,191.6c-0.9-2.8-2.3-5.3-3.7-7.8c-5.5-10.1-11.1-20.2-16.6-30.2c-3.7-6.7-7.3-13.3-11.6-19.6
			c-2.2-3.2-4.5-6.3-6.9-9.4c-2.8-3.6-5.6-7.1-8.6-10.5c-11.2-12.5-24.5-22.2-37.8-31.7c-2.8-2-5.9-4.3-9.2-5.1
			c-2.8-0.7-5.7,1.1-3.9,4.8c10.4,21.1,16.8,45.9,19.8,69.7c2,16.1,1.6,32.9-1.9,48.7c-0.2,0.8-0.4,1.6-0.6,2.4h82.3
			C195.9,199.1,195.6,195.2,194.4,191.6z"/>
	</g>
	<g>
		<path class="st6" d="M30.4,61.8c-0.2-0.4-0.3-0.7-0.5-1.1c-2.2-5.4-4.3-10.9-6.4-16.4c-2.2-5.6-4.3-11.3-6-17.1
			c-1.8-5.9-3.3-11.9-4.1-18c-4.6,1.2-9,2.7-13.4,4.6V74C9.1,67.3,19.6,63.3,30.4,61.8z"/>
	</g>
	<g>
		<path class="st7" d="M8.1,203c0.8-1.1,1.6-2.3,2.3-3.5c4.2-6.6,7.9-13.3,12.1-19.8c12.1-18.5,24.5-36.7,37-54.9
			c1.1-1.6,2.2-3.2,3.4-4.8c-12.8-17.6-23.6-37-32.2-57.5c-4.7,0.6-9.3,1.6-13.7,3.3C11.1,68,5.5,71.2,0,74.6V203H8.1z"/>
	</g>
	<g>
		<path class="st8" d="M115,167.7c-1.5-0.8-3-1.6-4.5-2.5c-8.7-5.1-16.9-11.3-24.5-18.4c-7.9-7.4-14.9-15.8-21.5-24.6
			c-1.1-1.5-2.1-3-3.2-4.4c-5.2,6.4-10.4,13-15.3,19.8c-14.2,20.1-24.5,42.9-35.4,65.4h103.9C115.6,191.3,115.6,179.5,115,167.7z"/>
	</g>
	<g>
		<path class="st9" d="M194.4,191.6c-0.4-1.1-0.8-2.2-1.3-3.3c-9-0.4-18-1.9-26.7-3.6c-9.5-1.9-19-3.9-28.2-7
			c-7.2-2.4-14.2-5.3-21-8.9c0.2,10.7-0.8,21.4-3,31.7c-0.2,0.8-0.4,1.6-0.6,2.4h82.3C195.9,199.1,195.6,195.2,194.4,191.6z"/>
	</g>
	<g>
		<path class="st10" d="M195.2,194.6C184,168.1,152.9,105.1,103.8,80c-0.3,2.6-1.4,5.1-3.4,6.7c14.9,43.9,20.1,83,15.5,116.3h79.5
			c-0.1-0.2-0.2-0.3-0.2-0.6C195.3,199.8,195.3,197.2,195.2,194.6z"/>
		<path class="st10" d="M98.7,69.9c3.2,0.9,4.9,4.4,5.1,8.1c47.7,24,78.6,83.3,91.2,111.9c-1.5-36.5-9.8-69.9-24.4-97.2
			c-4.1-7.7-8.7-15.1-13.8-22.1c-13-18.2-34.6-41.9-63.8-53.4C99.4,31.7,101.3,49.4,98.7,69.9z"/>
		<path class="st10" d="M98.9,87.6c-0.8,0.3-1.6,0.6-2.6,0.6c-2.1,0.2-3.8-0.5-5.1-1.5C54.4,121.4,29.7,164.6,10.3,203h103.9
			C118.9,170,113.7,131.2,98.9,87.6z"/>
		<g>
			<path class="st10" d="M89.7,73.9c1.1-1.8,2.8-3.2,5.1-3.9c0.8-0.2,1.6-0.3,2.3-0.3c2.7-21,0.6-38.9-6.3-53.3
				c-0.2-0.1-0.4-0.2-0.6-0.2C60.6,5.5,28.7,5.2,0,15.3v58.6C29.1,57.9,63,58,89.7,73.9z"/>
			<path class="st10" d="M156.9,70.5C143.8,52.4,122.2,28.7,93,17.2c6.4,14.5,8.3,32.2,5.7,52.7c3.2,0.9,4.9,4.4,5.1,8.1
				c47.7,24,78.6,83.3,91.2,111.9c-1.5-36.5-9.8-69.9-24.4-97.2C166.6,85,162,77.5,156.9,70.5z"/>
			<path class="st11" d="M196.9,194.3L196.9,194.3c-1-38.6-9.5-74-24.8-102.6c-4.1-7.8-8.8-15.3-13.9-22.4
				c-13.5-18.7-36-43.3-66.5-54.7c-0.1,0-0.1-0.1-0.2-0.1c-0.3-0.1-0.6-0.2-0.8-0.3C61,3.6,28.9,3.3,0,13.3v2
				C28.7,5.2,60.6,5.5,90.1,16c0.2,0.1,0.4,0.2,0.6,0.2c6.9,14.5,9,32.4,6.3,53.3c-0.7,0-1.5,0.1-2.3,0.3c-2.3,0.7-4,2.1-5.1,3.9
				C63,58,29.1,57.9,0,73.9V76c0.1,0,0.1,0,0.2-0.1c28.8-16,62.3-16.1,88.6-0.4c-1.3,3.3-0.9,7.3,1.1,9.9
				c-37.4,35.4-63.2,81-81.6,117.6h1.9c19.4-38.4,44.1-81.6,80.9-116.3c1.3,1,3,1.7,5.1,1.5c1-0.1,1.8-0.3,2.6-0.6
				c14.8,43.6,20,82.4,15.3,115.4h1.7c4.6-33.4-0.6-72.5-15.5-116.3c2-1.5,3.1-4.1,3.4-6.7c49.1,25.1,80.2,88.1,91.4,114.6
				c0.1,2.6,0.1,5.2,0.1,7.9c0,0.2,0.1,0.4,0.2,0.6h1.3c0.1-0.2,0.2-0.3,0.2-0.6C197,199.7,197,197,196.9,194.3z M103.9,77.9
				c-0.2-3.7-2-7.1-5.1-8.1c2.6-20.5,0.7-38.2-5.7-52.7c29.2,11.5,50.8,35.2,63.9,53.3c5.1,7,9.7,14.5,13.8,22.1
				c14.5,27.3,22.8,60.7,24.4,97.2C182.4,161.2,151.5,101.9,103.9,77.9z"/>
		</g>
	</g>
</g>
</svg>
