<?xml version="1.0" encoding="utf-8"?>
<!-- Generator: Adobe Illustrator 23.0.1, SVG Export Plug-In . SVG Version: 6.00 Build 0)  -->
<svg version="1.1" id="Layer_1" xmlns="http://www.w3.org/2000/svg" xmlns:xlink="http://www.w3.org/1999/xlink" x="0px" y="0px"
	 viewBox="0 0 200 200" style="enable-background:new 0 0 200 200;" xml:space="preserve">
<style type="text/css">
	.st0{fill:#00CBE7;}
	.st1{fill:#00B4CD;}
	.st2{fill:#FFCA3A;}
	.st3{fill:#F7B010;}
	.st4{fill:none;}
	.st5{fill:#62308A;}
	.st6{fill:#FFFFFF;}
</style>
<g>
	<g>
		<path class="st0" d="M111.3,0.5c0,1,0.1,1.9,0.1,2.9c0.2,6.1,0.5,13.2-4.9,17.1c-0.9,0.6-1.2,1.5-1.2,2.3
			C94.8,32,85.4,42.7,82.5,56.3l0,0c-0.1,0.4-0.2,0.8-0.3,1.2c-0.2,0.9,0.1,1.7,0.5,2.2c0.9,3.4,3.5,6.1,6.8,7.5
			c5.3,2.2,11.1,0.4,15.9-2c7.9-4,14.6-9.8,19.9-16.8c-0.3,1.1-0.5,2.2-0.6,3.1c-0.2,2.5-0.2,5,0.4,7.5c1,4.4,4.2,9,8.9,9.8
			c5,0.8,8.7-3,10.4-7.3c0.9-2.2,1.6-4.6,2.1-7c1,2.7,2.2,5.1,4,7c3.9,4.1,10.1,4.3,14.8,1.4c8.9-5.5,10-17.8,8.3-28.6
			c2,1.5,4.2,2.6,6.7,2.8c6.6,0.6,12.5-4.9,16.1-9.8c1.3-1.8,2.4-3.6,3.3-5.5V0.5H111.3z"/>
	</g>
	<g>
		<path class="st1" d="M111.4,3.4c0.2,6.1,0.5,13.2-4.9,17.1c-0.9,0.6-1.2,1.5-1.2,2.3c-9.6,8.3-18.2,18-21.8,29.9
			c1.9,1.1,3.9,1.9,6.1,2.2c3.8,0.5,7.7-0.1,11.3-1.3c7.7-2.6,14.7-7.6,20.2-13.5c6.3-6.8,10.4-15.7,12.3-24.7
			c1-4.9,1.5-9.9,1.5-14.9h-23.6C111.3,1.5,111.4,2.5,111.4,3.4z"/>
	</g>
	<g>
		<path class="st2" d="M171.3,116.2c-0.5-0.1-1.1-0.1-1.6,0c-3.9,0.3-8.5,0.5-9.4-4.1c-0.2-1-0.3-2.1-0.8-3.1
			c-2.7-5.4-6.5,4.5-7.1,6.6c-2.9,0-5.6-0.3-8.4-0.9c-1.7-0.3-2.3,1.9-0.9,2.7c2.1,1.3,3.9,2.7,5.6,4.4c-1.3,3.7-3,7.5-3.2,11.4
			c0,1.3,1.8,1.7,2.5,0.8c2.9-3.5,6.2-6.4,9.9-8.9c2.2,2.2,4.1,4.7,6.1,7.1c0.9,1.2,2.3,1.8,2.7,0c0.6-2.5-1.3-4.3-1.6-6.6
			c-0.2-1.7,0.1-3.5,1.5-4.6c0.9-0.7,2.2-0.9,3.3-1.2c1.5-0.4,4.6-2.9,1.6-3.7C171.4,116.2,171.3,116.2,171.3,116.2z"/>
		<path class="st3" d="M151.4,115.5c-2.5-0.1-5-0.4-7.5-0.9c-1.7-0.3-2.3,1.9-0.9,2.7c2.1,1.3,3.9,2.7,5.6,4.4
			c-1.3,3.7-3,7.5-3.2,11.4c0,1.3,1.8,1.7,2.5,0.8c2.4-2.8,5-5.3,7.9-7.4C153.6,123.3,152.3,119.4,151.4,115.5z"/>
	</g>
	<g>
		<path class="st2" d="M195.8,169.4c-2.3-1-4.5-1.6-7-2.3c-0.9-0.2-1.7-0.2-2.4-0.7c0-0.1,0-0.2-0.1-0.3c-0.3-0.9-2-10.2-4.1-7.6
			c-0.3,0.2-0.4,0.5-0.5,0.9c-0.6,1.2-1.2,2.5-1.9,3.7c-1.3,2.3-1.2,2.5-3.6,3.1c-2.7,0.6-5.5,0.6-8.3,1.4c-1.3,0.4-1.1,2.1-0.2,2.6
			c2.3,1.4,4.6,2.8,6.9,4.1c0.1,0-6.3,12.3-3.4,11.9c0.3,0,0.5-0.2,0.7-0.3c2.5-1.7,6-5.3,9.3-5.3c2.9,0.1,6.5,4,8.8,5.7
			c1,0.8,3-0.1,2.3-1.6c-1.4-2.9-2.9-5.8-4.5-8.6c2.8-1.1,5.4-2.5,8-4.1C196.8,171.3,196.8,169.8,195.8,169.4z"/>
		<path class="st3" d="M177.1,171.6c-0.5-1.8-0.7-3.6-0.6-5.5c-0.1,0-0.1,0-0.2,0.1c-2.7,0.6-5.5,0.6-8.3,1.4
			c-1.3,0.4-1.1,2.1-0.2,2.6c2.3,1.4,4.6,2.8,6.9,4.1c0.1,0-6.3,12.3-3.4,11.9c0.3,0,0.5-0.2,0.7-0.3c2.5-1.7,6-5.3,9.3-5.3
			c0.2,0,0.4,0,0.6,0.1C180,177.7,178,175,177.1,171.6z"/>
	</g>
	<g>
		<g>
			<path class="st0" d="M14.8,6.9C9.2,12.8-0.5,21.8,1.2,31c1.9,10.9,13.5,2.4,18-1.1c5.5-4.3,10.6-9,15.3-14.2
				c-0.3,2.4-0.5,4.8-0.6,7.2c-0.1,4.5,0.3,10.5,5.5,12.1c4.7,1.5,7.9-2.7,10.2-6.1c1.7-2.5,3.2-5.1,4.6-7.7
				c0.9,5.9,3.3,11.3,9.3,10.7c6.9-0.6,10.1-8.6,12-15.8c2.5,5.8,5.4,11.7,9.9,15.4c6.1,5,15.4,3.2,21.9,0c7-3.4,11.7-9.9,12.5-17.7
				c0.5-4.6-0.2-9-1.5-13.2H21.1C18.9,2.6,16.8,4.7,14.8,6.9z"/>
		</g>
		<g>
			<path class="st4" d="M182.7,157.6c-0.8,1-1.4,2.2-1.9,3.4c-0.5,1.1-1,2.2-1.7,3.2c-0.6,0.8-1.3,1.5-2.1,1.9
				c-0.7,0.4-1.4,0.4-2.1,0.5c-0.3,0-0.5,0-0.8,0.1c-1.4,0.2-2.8,0.3-4.2,0.3h-0.1c-0.6,0-2.4,0-2.7,0.6c-0.1,0.2-0.1,0.4,0.1,0.7
				c0.2,0.3,0.5,0.6,0.9,0.8c1.2,0.8,2.5,1.5,3.8,2.3c0.6,0.4,1.3,0.7,1.9,1.1c0.3,0.2,0.6,0.4,0.9,0.7c0.3,0.5,0.4,1.1,0.2,1.8
				c-0.3,0.9-0.7,1.7-1.1,2.5c-0.2,0.4-0.4,0.8-0.6,1.2l-0.5,1.1c-0.5,1-0.9,2-1.4,3.1c-0.2,0.5-0.8,1.8-0.5,2.1
				c0.1,0.1,0.3,0.1,0.7,0.1c1.8-0.3,3.4-1.3,5-2.5c1-0.7,2-1.4,3-2.1c0.2-0.1,0.3-0.2,0.5-0.4c0.5-0.4,1.1-0.9,1.8-0.9
				c0.3,0,0.6,0.1,0.9,0.2c0.5,0.3,0.8,0.6,1.1,1l0.1,0.1c0.8,1,6,5.3,7.6,4.9c0.1,0,0.3-0.1,0.3-0.4c0.1-0.2,0-0.4-0.1-0.7
				c-0.4-1.9-1.2-3.7-2-5.4c-0.4-0.8-0.7-1.5-1.1-2.3l-0.2-0.5c-0.2-0.4-0.1-0.9,0.1-1.2c0.2-0.3,0.4-0.4,0.6-0.5
				c0.4-0.2,0.9-0.5,1.3-0.7c1-0.6,2.1-1.2,3.2-1.7l0.3-0.2c0.7-0.4,2.7-1.5,2.5-2.2c-0.1-0.5-2.2-1.1-2.9-1.2
				c-0.3-0.1-0.6-0.2-0.8-0.2c-1.4-0.5-2.6-0.8-3.9-1.1c-1.8-0.4-2.4-0.8-2.9-2.6c-0.4-1.3-0.8-2.6-1.3-3.8
				c-0.1-0.4-0.2-0.8-0.4-1.2c-0.2-0.7-0.4-1.4-0.7-1.9c-0.1-0.2-0.3-0.3-0.5-0.3C183,157.3,182.9,157.4,182.7,157.6z"/>
			<path class="st4" d="M3.2,23.7c-0.7,2.5-0.9,4.6-0.6,6.4c0.4,2.2,1.6,4.1,3.2,5c2.2,1.2,5.2,0.8,8.9-1.2
				c9.5-5.2,16.2-14.2,22.2-23.2c0.1-0.2,0.4-0.3,0.6-0.2c0.2,0.1,0.3,0.3,0.3,0.5c-0.9,4.2-1.4,8.5-1.5,12.8
				c-0.1,2.5,0,4.5,0.8,6.4c0.9,2.1,2.6,3.6,4.5,3.8c3.6,0.4,6.1-3.7,7.4-6.1c2-4.1,3.7-8.4,4.8-12.9c0.1-0.2,0.3-0.4,0.5-0.4
				s0.4,0.2,0.4,0.4c0.2,3.7,0.5,7.9,2.5,11.3c1.8,3.1,5.6,5.7,9.3,4.5c3-1,5.1-4.1,6.2-9.3c0.8-3.4,1.2-6.8,1.4-10.3
				c0-0.2,0.2-0.4,0.4-0.5c0.2,0,0.4,0.1,0.5,0.3c2.3,7.7,4.8,14.9,10.6,18.9c6.1,4.1,16.2,5.1,22.8,2.1c4.7-2.1,7.9-5.5,9.7-10.2
				c2.3-6.4,1.5-14.4-0.6-21.5H20.4c-1.9,1.4-3.8,3-5.5,4.7C9.1,10.8,5,17.2,3.2,23.7z"/>
			<path class="st4" d="M157.6,108.5c-1.8,2.1-3.2,4.6-4.7,7.2c0,0.1-0.1,0.2-0.3,0.3c-0.2,0.1-0.4,0.1-0.5,0.1
				c-1.7-0.1-3.5-0.2-5.3-0.3c-0.9,0-1.8-0.1-2.8-0.1c-0.1,0-0.2,0-0.3,0c-0.6,0-1.3,0.1-1.5,0.6c-0.2,0.6,0.6,1.2,1.1,1.6l6,4.1
				c0.2,0.1,0.3,0.4,0.2,0.6c-1.7,3.2-2.8,6.6-3.5,10.2c-0.1,0.7-0.1,1.1,0.2,1.3c0.2,0.2,0.5,0.1,0.8,0.1c0.3-0.1,0.6-0.4,0.9-0.7
				l8.5-7.5c0.1-0.1,0.4-0.4,0.8-0.3c0.3,0,0.5,0.2,0.6,0.3c1,0.9,1.9,1.8,2.8,2.7c1.4,1.4,2.9,2.8,4.4,4.1c0.4,0.3,1,0.6,1.4,0.7
				c0.1,0,0.3,0,0.3-0.1s0-0.2,0-0.3c0-0.9-0.2-1.8-0.4-2.7c-0.5-2.3-1.1-4.8-2.2-7.1c-0.1-0.1-0.2-0.5,0-0.9
				c0.1-0.1,0.2-0.2,0.2-0.2c1.3-0.9,2.7-1.6,4-2.3c1.2-0.6,2.4-1.2,3.5-1.9c0.2-0.2,0.5-0.3,0.6-0.6c0.1-0.2,0.1-0.3,0.1-0.4
				s-0.3-0.4-1.8-0.7c-1.1-0.2-2.4-0.2-3.2-0.2c-0.2,0-0.4,0-0.5,0c-1.2-0.1-2.3,0-3.6,0c-0.5,0-1,0-1.6,0c-0.1,0-0.2,0-0.4-0.1
				s-0.2-0.3-0.3-0.4c-0.6-1.6-1-3.2-1.5-4.8c-0.2-0.7-0.4-1.4-0.6-2.1c-0.1-0.3-0.2-0.6-0.4-0.8c-0.2-0.1-0.4-0.1-0.6,0.1
				C158,108,157.8,108.2,157.6,108.5z"/>
		</g>
		<g>
			<path class="st4" d="M182.7,157.6c-0.8,1-1.4,2.2-1.9,3.4c-0.5,1.1-1,2.2-1.7,3.2c-0.6,0.8-1.3,1.5-2.1,1.9
				c-0.7,0.4-1.4,0.4-2.1,0.5c-0.3,0-0.5,0-0.8,0.1c-1.4,0.2-2.8,0.3-4.2,0.3h-0.1c-0.6,0-2.4,0-2.7,0.6c-0.1,0.2-0.1,0.4,0.1,0.7
				c0.2,0.3,0.5,0.6,0.9,0.8c1.2,0.8,2.5,1.5,3.8,2.3c0.6,0.4,1.3,0.7,1.9,1.1c0.3,0.2,0.6,0.4,0.9,0.7c0.3,0.5,0.4,1.1,0.2,1.8
				c-0.3,0.9-0.7,1.7-1.1,2.5c-0.2,0.4-0.4,0.8-0.6,1.2l-0.5,1.1c-0.5,1-0.9,2-1.4,3.1c-0.2,0.5-0.8,1.8-0.5,2.1
				c0.1,0.1,0.3,0.1,0.7,0.1c1.8-0.3,3.4-1.3,5-2.5c1-0.7,2-1.4,3-2.1c0.2-0.1,0.3-0.2,0.5-0.4c0.5-0.4,1.1-0.9,1.8-0.9
				c0.3,0,0.6,0.1,0.9,0.2c0.5,0.3,0.8,0.6,1.1,1l0.1,0.1c0.8,1,6,5.3,7.6,4.9c0.1,0,0.3-0.1,0.3-0.4c0.1-0.2,0-0.4-0.1-0.7
				c-0.4-1.9-1.2-3.7-2-5.4c-0.4-0.8-0.7-1.5-1.1-2.3l-0.2-0.5c-0.2-0.4-0.1-0.9,0.1-1.2c0.2-0.3,0.4-0.4,0.6-0.5
				c0.4-0.2,0.9-0.5,1.3-0.7c1-0.6,2.1-1.2,3.2-1.7l0.3-0.2c0.7-0.4,2.7-1.5,2.5-2.2c-0.1-0.5-2.2-1.1-2.9-1.2
				c-0.3-0.1-0.6-0.2-0.8-0.2c-1.4-0.5-2.6-0.8-3.9-1.1c-1.8-0.4-2.4-0.8-2.9-2.6c-0.4-1.3-0.8-2.6-1.3-3.8
				c-0.1-0.4-0.2-0.8-0.4-1.2c-0.2-0.7-0.4-1.4-0.7-1.9c-0.1-0.2-0.3-0.3-0.5-0.3C183,157.3,182.9,157.4,182.7,157.6z"/>
			<path class="st4" d="M157.6,108.5c-1.8,2.1-3.2,4.6-4.7,7.2c0,0.1-0.1,0.2-0.3,0.3c-0.2,0.1-0.4,0.1-0.5,0.1
				c-1.7-0.1-3.5-0.2-5.3-0.3c-0.9,0-1.8-0.1-2.8-0.1c-0.1,0-0.2,0-0.3,0c-0.6,0-1.3,0.1-1.5,0.6c-0.2,0.6,0.6,1.2,1.1,1.6l6,4.1
				c0.2,0.1,0.3,0.4,0.2,0.6c-1.7,3.2-2.8,6.6-3.5,10.2c-0.1,0.7-0.1,1.1,0.2,1.3c0.2,0.2,0.5,0.1,0.8,0.1c0.3-0.1,0.6-0.4,0.9-0.7
				l8.5-7.5c0.1-0.1,0.4-0.4,0.8-0.3c0.3,0,0.5,0.2,0.6,0.3c1,0.9,1.9,1.8,2.8,2.7c1.4,1.4,2.9,2.8,4.4,4.1c0.4,0.3,1,0.6,1.4,0.7
				c0.1,0,0.3,0,0.3-0.1s0-0.2,0-0.3c0-0.9-0.2-1.8-0.4-2.7c-0.5-2.3-1.1-4.8-2.2-7.1c-0.1-0.1-0.2-0.5,0-0.9
				c0.1-0.1,0.2-0.2,0.2-0.2c1.3-0.9,2.7-1.6,4-2.3c1.2-0.6,2.4-1.2,3.5-1.9c0.2-0.2,0.5-0.3,0.6-0.6c0.1-0.2,0.1-0.3,0.1-0.4
				s-0.3-0.4-1.8-0.7c-1.1-0.2-2.4-0.2-3.2-0.2c-0.2,0-0.4,0-0.5,0c-1.2-0.1-2.3,0-3.6,0c-0.5,0-1,0-1.6,0c-0.1,0-0.2,0-0.4-0.1
				s-0.2-0.3-0.3-0.4c-0.6-1.6-1-3.2-1.5-4.8c-0.2-0.7-0.4-1.4-0.6-2.1c-0.1-0.3-0.2-0.6-0.4-0.8c-0.2-0.1-0.4-0.1-0.6,0.1
				C158,108,157.8,108.2,157.6,108.5z"/>
			<path class="st5" d="M199.8,17.3c-0.9,5.2-3,12.3-8.6,16.4c-1.8,1.3-3.9,2.2-6.2,2.6l0,0l0,0c-0.1,0-0.1,0-0.2,0
				c-3.8,0.6-7.9-0.4-10.4-3.4c-0.1-0.2-0.4-0.2-0.6-0.1c-0.2,0.1-0.3,0.3-0.2,0.6c2.6,8.4,2.6,15.6,0,21.4
				c-2.9,6.2-10.5,11.3-17.4,8.8c-5.8-2.1-8.7-8.3-9.9-11.9c-0.1-0.2-0.3-0.4-0.5-0.3c-0.2,0-0.4,0.2-0.4,0.4
				c-0.3,3.8-0.6,7.9-2.4,11.4c-1.9,3.8-5.3,6.3-8.7,6.4c-4.9,0.2-8.8-4.3-9.9-8.6c-1.3-4.8-0.2-10,0.9-14.4
				c0.1-0.2-0.1-0.5-0.3-0.5c-0.2-0.1-0.5,0-0.6,0.2c-4,5.5-8.2,11.3-13.6,15.6c-6,4.8-12.9,7-18.9,6.2c-3.2-0.4-7-2.1-8.1-5.5
				c-0.4-1.4-0.3-2.9-0.2-4.2c1-9.3,5.7-17.3,11.3-23.7c4.9,0.8,10,0.3,13.9-1.4c4.9-2.2,8.4-5.8,10.2-10.7
				c2.4-6.5,1.6-14.6-0.5-21.9h-1c2.1,7.2,2.9,15.1,0.6,21.5c-1.7,4.7-5,8.1-9.7,10.2c-6.7,2.9-16.7,2-22.8-2.1
				c-5.9-4.1-8.4-11.3-10.6-19c-0.1-0.2-0.3-0.4-0.5-0.3c-0.2,0-0.4,0.2-0.4,0.5c-0.2,3.5-0.7,6.9-1.4,10.3
				c-1.2,5.2-3.3,8.3-6.2,9.3c-3.7,1.2-7.6-1.4-9.3-4.5c-2-3.4-2.2-7.6-2.5-11.3c0-0.2-0.2-0.4-0.4-0.4s-0.4,0.1-0.5,0.4
				c-1.1,4.4-2.7,8.8-4.8,12.9c-1.2,2.4-3.8,6.5-7.4,6.1c-1.9-0.2-3.6-1.7-4.5-3.8c-0.8-1.9-0.9-3.9-0.8-6.4
				c0.1-4.3,0.6-8.6,1.5-12.8c0-0.2-0.1-0.5-0.3-0.5c-0.2-0.1-0.5,0-0.6,0.2C31,20,24.2,29,14.7,34.2c-3.7,2-6.7,2.4-8.9,1.2
				c-1.7-0.9-2.9-2.8-3.2-5c-0.3-1.8-0.1-3.8,0.6-6.4C5,17.2,9.1,10.8,14.9,5.2c1.8-1.7,3.6-3.2,5.5-4.7h-1.6
				c-1.6,1.2-3.1,2.6-4.6,4c-5.9,5.7-10.1,12.2-12,18.9c-0.8,2.7-1,4.8-0.7,6.8c0.4,2.5,1.8,4.7,3.7,5.7c1,0.5,2.1,0.8,3.3,0.8
				c1.9,0,4.1-0.7,6.5-2c8.9-4.9,15.5-13.1,21.2-21.5c-0.6,3.5-1,7.1-1.1,10.6c-0.1,2.3,0,4.7,0.9,6.8c1,2.4,3.1,4.2,5.3,4.4
				c4.1,0.5,7-4,8.3-6.6c1.7-3.3,3-6.8,4.1-10.4c0.3,3.1,0.8,6.2,2.4,9c2,3.4,6.3,6.3,10.4,5c3.3-1.1,5.6-4.4,6.9-10
				c0.6-2.6,1-5.2,1.3-7.9C76.8,21,79.5,27.3,85,31c2.5,1.6,5.5,2.8,8.7,3.4c-5.6,6.4-10.2,14.4-11.2,23.8c-0.1,1.4-0.2,3,0.2,4.5
				c1.2,3.8,5.4,5.7,8.9,6.2c6.3,0.9,13.5-1.5,19.6-6.4c4.9-3.9,8.7-8.9,12.4-13.9c-0.9,4-1.5,8.4-0.3,12.6
				c1.2,4.6,5.3,9.3,10.6,9.3c0.1,0,0.2,0,0.3,0c3.8-0.1,7.5-2.9,9.5-6.9c1.5-3,2-6.3,2.3-9.6c1.6,3.7,4.6,8.6,9.8,10.5
				c0.5,0.2,0.9,0.3,1.4,0.4c0.8,8,0.8,18.8,0.8,28.4c0,4.9,0,9.6,0.1,13.6c-0.1,0-0.2,0.1-0.3,0.1c-0.4,0.2-0.7,0.6-1,0.9
				c-1.8,2.2-3.3,4.6-4.8,7.2c-1.7-0.1-3.5-0.2-5.2-0.3c-0.9,0-1.8-0.1-2.7-0.1c-1.5-0.1-2.4,0.3-2.7,1.2c-0.2,0.6-0.2,1.6,1.5,2.7
				l5.7,3.8c-1.6,3.2-2.7,6.6-3.4,10.1c-0.1,0.4-0.3,1.6,0.5,2.2c0.3,0.2,0.6,0.4,1,0.4c0.2,0,0.5,0,0.7-0.1
				c0.5-0.2,0.9-0.5,1.2-0.8l8.5-7.5l0.1-0.1l0.1,0.1c0.9,0.9,1.9,1.8,2.8,2.7c1.4,1.4,2.9,2.9,4.5,4.1c0.4,0.3,1.2,0.8,1.8,0.9
				c0.5,0.1,1.1-0.1,1.3-0.6c0.1-0.2,0.1-0.5,0.1-0.7c0-1-0.2-2-0.4-2.9c-0.5-2.3-1.1-4.8-2.2-7.3c1.2-0.9,2.5-1.5,3.8-2.2
				c1.2-0.6,2.4-1.2,3.6-2c0.3-0.2,0.7-0.5,0.9-0.9c0.3-0.6,0.3-1,0.1-1.3c-0.3-0.6-1.1-1-2.5-1.2c-1.2-0.2-2.5-0.2-3.3-0.2
				c-0.2,0-0.4,0-0.5,0c-1.2-0.1-2.5-0.1-3.6,0c-0.5,0-0.9,0-1.4,0c-0.5-1.5-1-3-1.4-4.5c-0.2-0.7-0.4-1.4-0.6-2.2
				c-0.1-0.4-0.3-1-0.8-1.3c-0.1-0.1-0.2-0.1-0.3-0.1c-0.1-4-0.1-8.7-0.1-13.6c0-9.5,0-20.2-0.8-28.2c6.7,0.9,13.5-4,16.2-9.9
				c2.5-5.6,2.7-12.4,0.6-20.3c2.6,2.2,6.1,2.9,9.5,2.5c0,18-0.5,39-1,59.4c-0.5,20.5-1,41.7-1,59.7c-0.2,0.1-0.4,0.3-0.5,0.5
				c-0.9,1.1-1.5,2.4-2,3.6c-0.5,1.1-0.9,2.1-1.6,3c-0.5,0.7-1.1,1.3-1.8,1.6c-0.5,0.3-1.1,0.3-1.7,0.3c-0.3,0-0.6,0-0.9,0.1
				c-1.4,0.2-2.8,0.3-4.1,0.3h-0.1c-1,0-2.9,0.1-3.5,1.1c-0.2,0.3-0.3,0.8,0,1.6c0.3,0.6,0.8,0.9,1.3,1.3c1.2,0.8,2.5,1.5,3.8,2.3
				c0.6,0.4,1.3,0.7,1.9,1.1c0.2,0.1,0.4,0.3,0.6,0.4c0.2,0.2,0.2,0.6,0.1,0.9c-0.2,0.8-0.7,1.6-1.1,2.4c-0.2,0.4-0.4,0.8-0.6,1.2
				l-0.5,1.1c-0.5,1-0.9,2.1-1.4,3.2c-0.4,0.9-1,2.2-0.4,3c0.3,0.4,0.9,0.5,1.6,0.4c1.9-0.3,3.6-1.4,5.4-2.6c1-0.7,2-1.4,3-2.1
				c0.2-0.1,0.4-0.3,0.5-0.4c0.7-0.6,1.1-0.8,1.6-0.6c0.3,0.2,0.6,0.5,0.9,0.8l0.1,0.1c0.4,0.4,5.5,5.3,8.1,5.3c0.1,0,0.3,0,0.4,0
				c0.4-0.1,0.9-0.4,1-1.1c0.1-0.4,0-0.8,0-1.2c-0.4-2-1.3-3.8-2.1-5.6c-0.4-0.7-0.7-1.5-1-2.3l-0.2-0.5c-0.1-0.1-0.1-0.3,0-0.3
				c0-0.1,0.2-0.1,0.3-0.2c0.4-0.2,0.9-0.5,1.3-0.7c1-0.6,2.1-1.2,3.2-1.7l0.3-0.2c1.2-0.6,3.4-1.8,2.9-3.3
				c-0.3-0.9-1.8-1.4-3.6-1.9c-0.3-0.1-0.5-0.1-0.7-0.2c-1.4-0.5-2.7-0.9-4-1.1c-1.5-0.3-1.8-0.5-2.2-2c-0.4-1.3-0.8-2.6-1.3-3.8
				c-0.1-0.3-0.2-0.7-0.3-1.1c-0.2-0.7-0.4-1.5-0.7-2.1c-0.2-0.4-0.6-0.7-1-0.8c0-18,0.5-39.1,1-59.6s1-41.6,1-59.6
				c2.3-0.4,4.5-1.4,6.3-2.7c4.6-3.4,7-8.8,8.2-13.5v-4C199.9,17,199.8,17.1,199.8,17.3z M158.3,107.8c0.2-0.1,0.5-0.1,0.6-0.1
				c0.2,0.1,0.3,0.4,0.4,0.8c0.2,0.7,0.4,1.4,0.6,2.1c0.5,1.6,0.9,3.2,1.5,4.8c0,0.1,0.1,0.2,0.3,0.4c0.2,0.1,0.3,0.1,0.4,0.1
				c0.5,0,1,0,1.6,0c1.2,0,2.4,0,3.6,0c0.1,0,0.3,0,0.5,0c0.8,0,2.1,0,3.2,0.2c1.5,0.2,1.8,0.6,1.8,0.7s0,0.2-0.1,0.4
				c-0.1,0.2-0.4,0.4-0.6,0.6c-1.1,0.7-2.3,1.4-3.5,1.9c-1.4,0.7-2.8,1.4-4,2.3c-0.1,0-0.2,0.1-0.2,0.2c-0.2,0.3-0.1,0.7,0,0.9
				c1,2.3,1.7,4.8,2.2,7.1c0.2,0.9,0.4,1.8,0.4,2.7c0,0.1,0,0.2,0,0.3s-0.2,0.1-0.3,0.1c-0.4-0.1-1-0.4-1.4-0.7
				c-1.6-1.2-3-2.7-4.4-4.1c-0.9-0.9-1.8-1.8-2.8-2.7c-0.1-0.1-0.3-0.3-0.6-0.3c-0.4,0-0.7,0.2-0.8,0.3l-8.5,7.5
				c-0.3,0.3-0.6,0.5-0.9,0.7c-0.2,0.1-0.6,0.1-0.8-0.1c-0.2-0.2-0.3-0.6-0.2-1.3c0.6-3.6,1.8-7,3.5-10.2c0.1-0.2,0-0.5-0.2-0.6
				l-6-4.1c-0.5-0.3-1.3-1-1.1-1.6c0.2-0.4,0.8-0.6,1.5-0.6c0.1,0,0.2,0,0.3,0c0.9,0,1.8,0.1,2.8,0.1c1.7,0.1,3.5,0.1,5.3,0.3
				c0.1,0,0.3,0,0.5-0.1s0.2-0.2,0.3-0.3c1.5-2.6,3-5,4.7-7.2C157.8,108.2,158,108,158.3,107.8z M183.6,157.6
				c0.3,0.5,0.5,1.2,0.7,1.9c0.1,0.4,0.2,0.8,0.4,1.2c0.4,1.2,0.9,2.5,1.3,3.8c0.5,1.9,1.1,2.2,2.9,2.6c1.2,0.3,2.5,0.6,3.9,1.1
				c0.2,0.1,0.4,0.1,0.8,0.2c0.7,0.2,2.8,0.7,2.9,1.2c0.2,0.7-1.8,1.8-2.5,2.2l-0.3,0.2c-1.1,0.5-2.2,1.1-3.2,1.7
				c-0.4,0.2-0.9,0.5-1.3,0.7c-0.2,0.1-0.4,0.2-0.6,0.5c-0.2,0.3-0.3,0.8-0.1,1.2l0.2,0.5c0.3,0.8,0.7,1.5,1.1,2.3
				c0.8,1.7,1.7,3.5,2,5.4c0.1,0.3,0.1,0.5,0.1,0.7c-0.1,0.3-0.2,0.4-0.3,0.4c-1.6,0.4-6.8-4-7.6-4.9l-0.1-0.1
				c-0.3-0.4-0.6-0.7-1.1-1c-0.3-0.2-0.6-0.2-0.9-0.2c-0.7,0-1.3,0.5-1.8,0.9c-0.2,0.1-0.3,0.3-0.5,0.4c-1,0.7-2,1.4-3,2.1
				c-1.6,1.1-3.2,2.2-5,2.5c-0.5,0.1-0.7,0-0.7-0.1c-0.2-0.3,0.3-1.5,0.5-2.1c0.4-1,0.9-2,1.4-3.1l0.5-1.1c0.2-0.4,0.4-0.8,0.6-1.2
				c0.4-0.8,0.8-1.7,1.1-2.5c0.2-0.6,0.1-1.3-0.2-1.8c-0.2-0.3-0.6-0.5-0.9-0.7c-0.6-0.4-1.3-0.8-1.9-1.1c-1.2-0.7-2.5-1.5-3.8-2.3
				c-0.4-0.2-0.7-0.5-0.9-0.8c-0.1-0.3-0.2-0.6-0.1-0.7c0.4-0.6,2.1-0.6,2.7-0.6h0.1c1.4,0,2.8-0.1,4.2-0.3c0.3,0,0.5,0,0.8-0.1
				c0.7,0,1.3-0.1,2.1-0.5s1.5-1.1,2.1-1.9c0.7-1,1.2-2.1,1.7-3.2c0.5-1.2,1.1-2.4,1.9-3.4c0.1-0.1,0.3-0.3,0.4-0.3
				C183.3,157.2,183.5,157.4,183.6,157.6z"/>
		</g>
	</g>
	<path class="st6" d="M157.3,111.8c-0.2,1.7-0.3,4.6,1.2,5.9c0.7,0.6,1.5,0.7,2.3,0.8c1.3,0.1,2.8,0.3,4.2,0.1
		c0.6-0.1,0.7-1.4,0.1-1.5c-1.6-0.5-3.3-0.2-4.9-0.6c-2-0.5-1.6-3.1-1.9-4.7C158.1,111.1,157.4,111.1,157.3,111.8L157.3,111.8z"/>
	<path class="st6" d="M161.7,122.9c0.2,0.7,0.4,1.4,0.7,2.1c0.2,0.6,0.4,1.3,1,1.6c0.4,0.2,0.6-0.5,0.6-0.7c0-0.7-0.3-1.3-0.5-1.9
		s-0.5-1.2-0.7-1.9c-0.1-0.3-0.5-0.6-0.8-0.4C161.7,122,161.6,122.5,161.7,122.9L161.7,122.9z"/>
	<path class="st6" d="M181.8,162.3c0.8,1.9,0.6,4.1,2,5.8c0.9,1.1,2.6,2.1,4,1.5c0.3-0.2,0.3-0.8,0-0.9c-1.4-0.8-2.9-1.1-3.7-2.7
		c-0.7-1.4-0.7-3.1-1.4-4.5C182.2,160.5,181.5,161.6,181.8,162.3L181.8,162.3z"/>
	<path class="st6" d="M190.4,170.6c0.7,0.1,1.3,0.1,2,0c0.3,0,0.5-0.3,0.6-0.5c0.1-0.3,0.1-0.7,0-1s-0.3-0.5-0.6-0.5
		c-0.7-0.1-1.3,0-2,0C189.5,168.8,189.6,170.5,190.4,170.6L190.4,170.6z"/>
	<path class="st6" d="M185.3,176.5c0.6,1.2,1.1,2.4,1.7,3.6c0.5,0.9,0.9,2.1,1.7,2.7c0.5,0.4,0.7-0.5,0.6-0.8
		c-0.2-1.3-0.8-2.4-1.4-3.5c-0.5-1.1-1.1-2.2-1.7-3.3C185.8,174.3,185.1,175.8,185.3,176.5L185.3,176.5z"/>
</g>
</svg>
