<?xml version="1.0" encoding="utf-8"?>
<!-- Generator: Adobe Illustrator 23.0.1, SVG Export Plug-In . SVG Version: 6.00 Build 0)  -->
<svg version="1.1" id="Layer_1" xmlns="http://www.w3.org/2000/svg" xmlns:xlink="http://www.w3.org/1999/xlink" x="0px" y="0px"
	 viewBox="0 0 200 200" style="enable-background:new 0 0 200 200;" xml:space="preserve">
<style type="text/css">
	.st0{fill:#FF4A58;}
	.st1{fill:#CF323E;}
	.st2{fill:#FFFFFF;}
	.st3{fill:none;}
	.st4{fill:#62308A;}
	.st5{fill:#00CBE7;}
	.st6{fill:#00B4CD;}
</style>
<g>
	<g>
		<path class="st0" d="M179.8,16c-1.5-1.8-3.1-3.5-4.9-5c-6.4-5.4-14.5-7.8-22.7-8.6c-18-1.7-34.7,16.9-36.7,34.1
			c-0.5,4.4-0.2,8.9,1.1,13.2c3.9,13.7,17,24.4,31,25.3c9.1,0.6,18.6-1.6,26.4-6.5c8.2-5.2,12.7-13.6,14.1-23.2
			c0.7-5.2,0.4-10.5-1-15.5C185.7,24.7,183.1,20,179.8,16z"/>
		<path class="st1" d="M133.9,31c-0.2,1.8,0.2,3.5,0.7,5.2c0.7,2.4,1.4,3.9,3.2,5.7c1.6,1.6,3.3,3.1,5.2,4.3
			c2.8,1.8,6.1,2.9,9.4,2.8c1.5-0.1,5.5-2,2.4-3.3c-0.7-0.3-1.5-0.2-2.3-0.2c-3.7,0.2-7.6-0.6-10.2-3.2c-1.8-1.8-3-4-3.8-6.5
			c-0.9-3-1.8-6.2-0.7-9.1c0.3-0.8,0.8-1.8,0.6-2.7c-1.3-0.1-2.2,1.8-2.8,2.8C134.7,28.1,134.1,29.5,133.9,31z"/>
		<path class="st1" d="M151.3,31.2c1.5-1.3,3.6-1.8,5.5-1.2c2.1,0.6,3.7,2.4,4.4,4.4c0.8,2,0.8,4.2,0.3,6.3
			c-0.1,0.7-0.2,1.5,0.3,1.8c0.3,0.2,0.8,0.1,1.2,0c1-0.5,1.5-1.6,1.7-2.7c0.9-3.9-0.5-8.3-3.5-10.9c-3-2.7-7.5-3.5-11.3-2.2
			c-1,0.4-2,0.9-2.8,1.7c-1.7,1.8-1.9,4.6-1.5,7c0.2,1,0.5,2.1,1.2,2.9c0.5,0.6,1.8,1.5,2.5,1.4c0.5-0.1,0.9-0.4,1.1-0.9
			c0.5-1.5-1.4-2.1-1.4-3.4C149.4,33.7,150.2,32.2,151.3,31.2z"/>
		<path class="st1" d="M185.9,26.4c-0.8,0.1-1.6,0.5-2.1,1.3c-1,1.6-0.5,4-0.3,5.7c0.2,1.6,0.4,3.2,0.3,4.8
			c-0.1,1.7-0.3,3.5-0.8,5.2c-0.7,2.8-2.2,5.7-3.5,8.3C174.4,62.2,160.1,66.9,149,67c-4.2,0-8.4-0.8-12.1-2.6
			c-2.6-1.2-7.7-4.1-8.2-7.3c2,0,5.1,2.4,7.1,3.1c5.9,2.1,12.7,2.7,18.8,1.2c6.1-1.5,11.9-4.4,16.8-8.4c1.2-1,2.5-2.3,2.4-3.9
			c-0.9-0.3-1.8,0.3-2.6,0.8c-7.1,4.9-16.2,6-24.8,5.7c-8.5-0.3-15.9-6.9-19.7-14.1c-2.9-5.3-4-11.7-3.9-17.7c0-2.1,0.3-4.3,0.8-6.5
			c-4.3,5.8-7.3,12.6-8,19.2c-0.5,4.4-0.2,8.9,1.1,13.2c3.9,13.7,17,24.4,31,25.3c9.1,0.6,18.6-1.6,26.4-6.5
			c8.2-5.2,12.7-13.6,14.1-23.2c0.7-5.2,0.4-10.5-1-15.5C186.7,28.6,186.3,27.5,185.9,26.4z"/>
		<g>
			<path class="st2" d="M195.4,95.6c-3.7-5.9-7.4-11.9-11.1-17.9c-1.8-3-3.7-6-5.5-9c-0.4-0.6-1.3-3-2-3.1c-0.9-0.2-3.2,2.3-3.9,2.8
				c0,0,0,0-0.1,0c-0.3,0.2,17.8,30,19.4,32.7c2.6,4.4,5.2,8.9,7.8,13.3V103C198.5,100.5,197,98.1,195.4,95.6z"/>
		</g>
		<g>
			<path class="st3" d="M173.2,68.9c9.2,14.4,18.1,29,26.8,43.9v-9.3c-7.6-12.8-15.4-25.3-23.3-37.3
				C175.6,67.2,174.4,68.1,173.2,68.9z"/>
			<path class="st3" d="M180.4,60.3c8.4-10.9,9.8-26.3,3.5-38.5c-6.2-12-19.9-20-33.4-19.4c-13.2,0.6-27.9,10.4-31.8,23.6
				c0,0,0,0,0,0.1c-0.6,2.1-1,4.2-1,6.5c-0.1,8.6,3.9,17.3,10.2,22c6.2,4.7,13.9,7.2,21.5,6.9c7.5-0.2,18.2-3.6,23.7-10.4
				c5-6.2,6.1-15,2.8-22c-5.6-11.8-20.6-14.1-31.2-9.4c-4.7,2.1-8.2,5.9-9.2,10.1c-1.2,4.7,0.7,10.2,4.7,13.7
				c4.1,3.6,11.3,6,16.4,3.2c2.8-1.5,4.8-4.3,5.2-7.4c0.4-3.6-1.5-7.2-4.7-8.6c-1.7-0.8-3.7-0.7-5.1,0.2c-1.1,0.7-1.9,2-2,3.3
				c-0.1,1.1,0.2,2,1,2.7c0.3,0.3,0.3,0.7,0,1c-0.3,0.3-0.7,0.3-1,0c-1.1-1-1.6-2.3-1.4-3.8c0.2-1.8,1.2-3.5,2.7-4.4
				c1.8-1.1,4.3-1.2,6.5-0.2c3.7,1.7,6,5.9,5.5,10.1c-0.4,3.5-2.7,6.7-5.9,8.4c-5.8,3.1-13.4,0.6-18-3.4c-4.4-3.8-6.4-9.9-5.1-15.1
				c1.1-4.7,4.9-8.8,10-11.1c11.2-5,27-2.5,33,10.1c3.6,7.5,2.4,16.9-3,23.5c-5.8,7.2-16.6,10.7-24.7,10.9c-8,0.3-16-2.3-22.4-7.2
				c-5.6-4.3-9.5-11.4-10.5-18.9c-0.3,6.5,1.3,13.2,4.6,19.2c5.1,9.2,13.7,15.8,22.9,17.7c9.6,2,19.7-0.2,27.8-5.6c0,0,0,0,0,0
				c0,0,0,0,0,0C175.1,66,178,63.4,180.4,60.3z"/>
			<path class="st4" d="M173.2,68.9c1.2-0.8,2.3-1.7,3.4-2.7c7.9,12,15.7,24.4,23.3,37.3v-2.8c-7.3-12.2-14.7-24-22.3-35.5
				c1.4-1.3,2.6-2.7,3.8-4.1c8.7-11.3,10.2-27.4,3.7-40C178.7,8.7,164.4,0.4,150.4,1c-13.7,0.6-28.9,10.8-33.1,24.6c0,0,0,0,0,0
				c-3.8,10-2.8,21.4,2.6,31.1c5.3,9.5,14.2,16.4,23.9,18.4c2.4,0.5,4.9,0.7,7.3,0.7c7.4,0,14.8-2.2,21-6.2
				c9.6,15,19,30.4,27.9,45.9v-2.8C191.4,98,182.4,83.3,173.2,68.9z M171.9,68.1C171.9,68.1,171.9,68.1,171.9,68.1
				C171.9,68.2,171.9,68.2,171.9,68.1c-8.1,5.4-18.3,7.6-27.9,5.7c-9.3-1.9-17.9-8.5-22.9-17.7c-3.3-6-4.9-12.7-4.6-19.2
				c1,7.5,4.9,14.6,10.5,18.9c6.5,4.9,14.4,7.5,22.4,7.2c8.1-0.3,18.9-3.7,24.7-10.9c5.3-6.6,6.5-16,3-23.5c-6-12.6-21.8-15-33-10.1
				c-5.1,2.3-8.9,6.4-10,11.1c-1.3,5.2,0.8,11.3,5.1,15.1c4.6,4,12.3,6.5,18,3.4c3.2-1.7,5.5-5,5.9-8.4c0.5-4.2-1.8-8.4-5.5-10.1
				c-2.2-1-4.6-0.9-6.5,0.2c-1.4,0.9-2.5,2.6-2.7,4.4c-0.1,1.5,0.4,2.9,1.4,3.8c0.3,0.3,0.7,0.2,1,0c0.3-0.3,0.2-0.7,0-1
				c-0.7-0.7-1.1-1.6-1-2.7c0.1-1.3,0.9-2.6,2-3.3c1.4-0.9,3.4-0.9,5.1-0.2c3.1,1.4,5.1,5.1,4.7,8.6c-0.4,3-2.4,5.9-5.2,7.4
				c-5.1,2.8-12.3,0.4-16.4-3.2c-4-3.5-5.9-9-4.7-13.7c1-4.2,4.5-8,9.2-10.1c10.6-4.7,25.5-2.5,31.2,9.4c3.3,7,2.2,15.8-2.8,22
				c-5.5,6.8-16.1,10.2-23.7,10.4c-7.7,0.3-15.3-2.2-21.5-6.9c-6.3-4.8-10.4-13.5-10.2-22c0-2.2,0.4-4.4,1-6.5c0,0,0,0,0-0.1
				c4-13.2,18.6-23,31.8-23.6c13.5-0.6,27.2,7.3,33.4,19.4c6.3,12.2,4.8,27.6-3.5,38.5C178,63.4,175.1,66,171.9,68.1z"/>
		</g>
	</g>
	<path class="st2" d="M136.7,11.3c11.3-5.3,21.2-2.7,32.1,2c0.6,0.3,0.6-0.9,0.3-1.2c-8.9-8-22.6-7.2-32.7-2.3
		C135.8,10.1,136,11.6,136.7,11.3L136.7,11.3z"/>
	<path class="st2" d="M172.9,16c0.4,0.3,0.8,0.7,1.3,1c0.2,0.2,0.6,0.3,0.8,0.1c0.1,0,0.1-0.1,0.2-0.1c0.6-0.3,0.7-1,0.6-1.6
		c-0.2-1.1-1-1.5-1.8-2.1C172.5,12.4,172,15.2,172.9,16L172.9,16z"/>
	<path class="st2" d="M151.8,23c7.7-0.6,19.3,2.7,20.7,11.5c0.2,1.2,1.3,0.7,1.3-0.3c0.3-10.1-14.2-13.7-22.1-13.1
		C150.9,21.2,151,23,151.8,23L151.8,23z"/>
	<path class="st2" d="M172,39.6c0-0.3-0.2,0.3-0.2,0.3c-0.1,0.4-0.2,0.8-0.2,1.2c0,0.7,0.3,1.4,0.9,1.8c0.3,0.1,0.7,0,0.9-0.2
		c0.8-0.9,1-2,1-3.1c0-0.7-0.4-1.9-1.3-1.9C172.2,37.7,172,38.9,172,39.6L172,39.6z"/>
	<path class="st2" d="M154.8,34.7c1.3,0.7,2.2,1.9,2.3,3.4c0.2,1.3-0.5,2.2-0.9,3.4c-0.1,0.4,0,1.8,0.7,1.4c1.6-1,2-3.6,1.7-5.3
		c-0.3-2.1-1.7-3.7-3.6-4.6C154.3,32.6,154.2,34.4,154.8,34.7L154.8,34.7z"/>
</g>
<g>
	<g>
		<path class="st5" d="M162,103.9c-1.6-1.8-3.4-3.5-5.3-5.1c-6.9-5.5-15.6-8-24.4-8.7c-19.3-1.7-37.2,17.5-39.2,35.2
			c-0.5,4.5-0.1,9.2,1.2,13.6c4.2,14,18.3,25.1,33.3,25.9c9.8,0.6,20-1.7,28.3-6.8c8.8-5.4,13.6-14,15-23.9c0.8-5.3,0.4-10.8-1.1-16
			C168.3,112.9,165.5,108.1,162,103.9z"/>
		<path class="st6" d="M128.4,126c2.1-2.3,5.3-3.4,8.3-1.1c1.7,1.3,2.7,3.5,3,5.7c0.3,2.2-0.1,4.4-0.6,6.5c-0.1,0.3-0.2,0.7,0,1
			c0.2,0.4,0.9,0.4,1.3,0.1c0.4-0.3,0.6-0.7,0.8-1.2c1.5-3.7,2.2-7.9,0.7-11.6c-1.5-3.7-5.6-6.5-9.4-5.5c-1.4,0.4-2.6,1.1-3.7,2
			c-2.6,2.1-7.5,7.9-4.8,11.3c0.1,0.2,0.3,0.4,0.5,0.4c0.4,0.1,0.7-0.2,0.9-0.5c0.2-0.3,0.1-0.7,0.2-1.1
			C125.8,130,126.8,127.7,128.4,126z"/>
		<path class="st6" d="M115.2,118.7c0.2-0.6,0.5-2.2-0.3-2.6c-0.8-0.4-1.8,1-2.2,1.4c-3.9,3.7-4.4,11.1-2.7,15.9
			c0.4,1.1,1,2.2,1.6,3.3c1.9,3.2,4.7,6.1,8.1,7.6c3.4,1.6,7.6,1.7,10.9-0.1c0.6-0.3,1.2-0.8,1.1-1.5c0-0.6-0.7-1.1-1.3-1.2
			c-1.7-0.4-3.5,0.5-5.3,0.4c-2.9-0.1-5.2-2.6-6.8-5.1c-2.9-4.5-5-9.9-3.9-15.1C114.6,120.7,114.9,119.7,115.2,118.7z"/>
		<path class="st6" d="M130.3,164.3c3.7-0.2,7.3-1,10.6-2.6c2.6-1.3,5.1-3.1,7.2-5.1c2.2-2,4.4-4.6,5-7.6c0.2-0.8,0.6-3.3-0.3-3.8
			c-0.6-0.4-1.6,0.9-1.9,1.3c-1.6,1.8-3.1,3.8-4.8,5.5c-3.5,3.4-7.8,5.6-12.7,6.3c-4.6,0.6-9.4,0-13.7-1.9
			c-4.1-1.8-7.6-4.7-10.5-8.2c-3-3.5-5.3-7.6-7.1-11.9c-1.1-2.6-1.9-5.2-2.2-8.1c-0.3-3,0-6,0.6-9c1.2-5.8,3.6-11.4,7-16.2
			c1.7-2.4,3.6-4.8,5.5-7.1c0.4-0.5,0.9-1.1,1.4-1.6c-11.4,6.4-20,19-21.4,31c-0.5,4.5-0.1,9.2,1.2,13.6c3.6,12.1,14.6,21.9,27.1,25
			C124.3,164.1,127.3,164.4,130.3,164.3z"/>
		<g>
			<path class="st2" d="M197.9,190.1c-5.3-5.6-11-10.8-16.7-16c-6.1-6-12.3-11.9-18.4-17.9c-0.9-0.9-2-0.7-2.7,0
				c-1.4,0.4-2.4,2.4-1,3.7c3.7,3.7,7.7,6.6,11.3,10.3c4.4,4.4,8.8,8.9,13.2,13.3c5.4,5.4,10.9,10.8,16.4,16.2v-7.5
				C199.3,191.4,198.6,190.8,197.9,190.1z"/>
		</g>
		<g>
			<path class="st3" d="M161.7,155.6c-1,1.1-2,2.1-3.1,3c14.5,12.6,28.4,26.1,41.4,40.4v-6.8C187.7,178.8,174.8,166.5,161.7,155.6z"
				/>
			<path class="st3" d="M169.4,129.7c0-5.4-0.9-10.5-2.7-15.2c-4.1-10.7-13-19-23.8-22.3c-10.8-3.3-23.5-1.2-32.9,5.5
				c-9.7,6.8-15.9,18.1-16.3,29.6c-0.3,6.9,1.5,13.8,5.1,19.5c4.6,7.4,12.4,13.1,21.4,15.6c0.6,0.2,1.1,0.3,1.7,0.4c0,0,0.1,0,0.1,0
				c4,0.9,7.8,1.1,11.3,0.5c7.6-1.2,14.8-6.1,19-13c4.1-6.7,5.4-15,3.6-22.7c-2-8.2-7.4-15-14.5-18.2c-7.5-3.4-16.8-2.4-23.2,2.4
				c-6.8,5.1-10.1,14.3-7.7,21.8c2.4,7.7,11,12.7,18.7,10.9c1.8-0.4,3.4-1.1,4.7-2.1c2.6-1.9,4.4-5.2,4.9-9.1
				c0.5-3.6-0.7-7.8-3.8-8.7c-2.7-0.8-5.6,1.1-7,3.3c-1.6,2.6-2,5.7-2.1,8.5c0,0.4-0.3,0.7-0.7,0.7c-0.4,0-0.7-0.3-0.7-0.7
				c0.1-2.9,0.5-6.3,2.3-9.2c1.7-2.7,5.2-4.9,8.6-3.9c4.1,1.2,5.3,6.2,4.8,10.2c-0.6,4.2-2.5,7.9-5.4,10c-1.5,1.1-3.2,1.9-5.2,2.3
				c-8.4,1.9-17.7-3.5-20.3-11.9c-2.5-8.1,0.9-17.9,8.2-23.4c4.1-3.1,9.4-4.7,14.6-4.7c3.4,0,6.9,0.7,10,2.1
				c7.5,3.4,13.2,10.6,15.3,19.2c1.9,8.1,0.6,16.8-3.8,23.8c-4,6.5-10.3,11.3-17.4,13.1c6.8-0.2,13.8-1.4,17.4-3.6
				c3.5-2.1,6.7-5.1,9.1-8.5C167,146,169.4,138.1,169.4,129.7z"/>
			<path class="st4" d="M158.6,158.6c1.1-0.9,2.1-1.9,3.1-3c13.2,10.9,26,23.2,38.3,36.6v-2.1c-12-13-24.6-25-37.5-35.6
				c0.4-0.5,0.8-1,1.2-1.5c4.5-6.4,7.1-14.6,7.1-23.2c0-5.5-0.9-10.8-2.8-15.7c-4.3-11.1-13.5-19.7-24.7-23.1
				c-11.2-3.4-24.3-1.2-34.1,5.7c-10,7-16.5,18.8-16.9,30.7c-0.3,7.2,1.6,14.4,5.3,20.3c4.8,7.7,12.9,13.7,22.2,16.2
				c0.6,0.2,1.2,0.3,1.8,0.5c3.1,0.9,7.7,1.4,12.7,1.4c7.4,0,15.5-1.1,19.9-3.8c1.1-0.7,2.2-1.5,3.3-2.3c0,0,0,0,0,0
				c14.9,12.9,29.2,26.9,42.5,41.5V199C187,184.8,173.1,171.2,158.6,158.6z M153.5,160.7c-3.6,2.2-10.6,3.4-17.4,3.6
				c7-1.9,13.4-6.6,17.4-13.1c4.3-7,5.7-15.7,3.8-23.8c-2.1-8.6-7.8-15.8-15.3-19.2c-3.1-1.4-6.6-2.1-10-2.1
				c-5.3,0-10.5,1.6-14.6,4.7c-7.3,5.5-10.7,15.3-8.2,23.4c2.6,8.4,11.9,13.8,20.3,11.9c2-0.5,3.8-1.2,5.2-2.3
				c2.9-2.2,4.9-5.8,5.4-10c0.6-4.1-0.7-9-4.8-10.2c-3.4-1-6.9,1.2-8.6,3.9c-1.8,2.8-2.2,6.2-2.3,9.2c0,0.4,0.3,0.7,0.7,0.7
				c0.4,0,0.7-0.3,0.7-0.7c0.1-2.8,0.4-5.9,2.1-8.5c1.4-2.2,4.3-4.1,7-3.3c3.1,0.9,4.3,5.1,3.8,8.7c-0.5,3.8-2.3,7.2-4.9,9.1
				c-1.3,1-2.9,1.7-4.7,2.1c-7.7,1.8-16.3-3.2-18.7-10.9c-2.4-7.5,0.9-16.7,7.7-21.8c6.4-4.8,15.8-5.8,23.2-2.4
				c7.1,3.2,12.5,10,14.5,18.2c1.8,7.7,0.5,16-3.6,22.7c-4.3,7-11.4,11.8-19,13c-3.5,0.6-7.3,0.4-11.3-0.5c0,0-0.1,0-0.1,0
				c-0.6-0.1-1.1-0.3-1.7-0.4c-9-2.5-16.8-8.2-21.4-15.6c-3.5-5.7-5.4-12.7-5.1-19.5c0.4-11.5,6.7-22.8,16.3-29.6
				c9.5-6.7,22.1-8.8,32.9-5.5c10.8,3.3,19.7,11.6,23.8,22.3c1.8,4.7,2.7,9.8,2.7,15.2c0,8.3-2.5,16.3-6.8,22.4
				C160.2,155.6,157,158.5,153.5,160.7z"/>
		</g>
	</g>
	<path class="st2" d="M120.8,97.3c5.3-3.9,17.9-1.9,23.3,0.4c7.2,3.2,10.8,8.8,14.3,15.5c0.6,1.1,1.4,0,1.2-0.8
		c-1.6-7.4-7.4-13.7-14.2-16.9c-6.3-3.1-19.6-5.2-25.4-0.1C119.3,96,119.7,98.1,120.8,97.3L120.8,97.3z"/>
	<path class="st2" d="M160.8,116.6c0.2,0.8,0.3,1.6,0.3,2.4c0,0.9-0.1,1.8,0.6,2.4c0.2,0.1,0.5,0.2,0.7,0.1c1-0.6,0.8-2,0.7-3
		c-0.1-1.1-0.4-2.1-0.8-3c-0.2-0.4-0.6-0.8-1.1-0.5C160.8,115.4,160.7,116.1,160.8,116.6L160.8,116.6z"/>
	<path class="st2" d="M137.1,113.8c4.2,1.3,7.8,3.8,10.3,7.4c2.8,4.1,2.9,8.2,3.7,13c0.1,0.5,0.7,0.7,0.9,0.2
		c3.8-9.8-5.9-19.8-14.7-21.9C136.6,112.2,136.5,113.6,137.1,113.8L137.1,113.8z"/>
	<path class="st2" d="M150.2,138.2c-0.2,1.2-1.6,2.6-0.5,3.7c0.3,0.3,1,0.3,1.3,0.1c0.3-0.2,0.5-0.5,0.6-0.8
		c0.3-0.7,0.6-1.4,0.7-2.2c0.1-0.7-0.1-1.8-0.8-2C150.8,136.7,150.3,137.6,150.2,138.2L150.2,138.2z"/>
	<path class="st2" d="M133.5,130.5c0.5,1.4,1,2.9,0.9,4.4c-0.1,1.1-0.8,2-0.9,3c-0.1,0.4,0.1,1.1,0.6,1.1c1.5,0.1,2-2.4,2.2-3.6
		c0.2-2.2-0.5-4.2-1.2-6.2C134.3,127.5,133.1,129.4,133.5,130.5L133.5,130.5z"/>
</g>
</svg>
