<?xml version="1.0" encoding="utf-8"?>
<!-- Generator: Adobe Illustrator 23.0.1, SVG Export Plug-In . SVG Version: 6.00 Build 0)  -->
<svg version="1.1" id="Layer_1" xmlns="http://www.w3.org/2000/svg" xmlns:xlink="http://www.w3.org/1999/xlink" x="0px" y="0px"
	 viewBox="0 0 200 200" style="enable-background:new 0 0 200 200;" xml:space="preserve">
<style type="text/css">
	.st0{fill:#FFFFFF;}
	.st1{fill:#62308A;}
</style>
<g>
	<path class="st0" d="M73.4,5.1c-0.3,0-0.7,0-1.1,0c-9.3,0.8-18.5,2-27.9,2.1c-2.1,0-4.3,0-6.4,0c-1.6,0-1.7,1.9-0.7,2.7
		c0.1,0.2,0.2,0.5,0.4,0.7c3.3,3.2,6.7,6.3,10.1,9.3c2.8,2.4,5.7,5.8,9.1,7.4c1.5,0.7,2.1,0.9,3.4,0.1c1.2-0.6,2.3-1.6,3.4-2.7
		c1.6,1.2,3.1,2.3,4.9,3.3c0.7,0.4,1.7,0,2-0.7C73.2,21,73.7,13.7,75,7c0.2-0.9-0.4-1.6-1.2-1.8C73.7,5.1,73.5,5.1,73.4,5.1z"/>
	<g>
		<path class="st1" d="M74.3,13.7c0.1-0.1,0.1-0.2,0.1-0.3c0.2-1.3,0.4-2.6,0.6-3.9s0.4-2.6,0.6-3.9c0-0.1,0-0.3-0.1-0.4
			S75.3,5,75.1,5C60.2,5.3,47.3,6.2,35.6,7.7c-0.3,0-0.4,0.3-0.4,0.5c0,0.3,0.2,0.5,0.5,0.5c0,0.1,0.1,0.1,0.1,0.2
			c2.5,1.8,4.8,4,7.1,6.1c1.3,1.3,2.7,2.5,4.1,3.8c3.4,2.9,6.9,5.8,10.4,8.6c0.2,0.2,0.4,0.3,0.5,0.5c0.4,0.4,0.9,0.8,1.4,0.8
			c0.1,0,0.1,0,0.2,0c0.6-0.1,1.1-0.7,1.5-1.2c0.1-0.1,0.2-0.3,0.3-0.4l2.2-2.3c1.8,1.7,3.9,3.3,6.1,4.5h0.1
			c0.1,0.1,0.1,0.2,0.2,0.2c0,0,0.1,0,0.2,0s0.3,0,0.3-0.1c1.1-1.1,1.6-2.7,1.9-4.2C73.1,21.2,73.8,17.4,74.3,13.7z M74.5,6.1
			c-0.1,1.1-0.3,2.2-0.5,3.3c-0.1,1-0.3,1.9-0.4,2.9l0,0c-9.2-0.7-18.8-1.4-28-3.1c-0.7-0.1-1.4-0.3-2.1-0.4
			c-1.1-0.2-2.2-0.4-3.3-0.6C50.5,7,61.8,6.3,74.5,6.1z M60.5,26.2c-0.1,0.1-0.2,0.3-0.4,0.5c-0.2,0.3-0.7,0.8-0.9,0.9
			c-0.1,0-0.4-0.2-0.8-0.5c-0.2-0.2-0.4-0.3-0.6-0.5c-3.5-2.8-7-5.7-10.4-8.6c-1.4-1.2-2.7-2.5-4.1-3.7c-1.7-1.6-3.4-3.2-5.3-4.7
			c4.6,1.2,9.3,2.5,13.8,3.8c3.5,1,7.2,2.1,10.8,3.1l1.2,0.3c1.2,0.3,2.4,0.6,3.6,1c0.1,0,0.3,0.1,0.4,0.1s0.1,0,0.2,0.1
			c0,0.1,0,0.3,0,0.4c-0.2,0.3-0.7,0.7-1,1.1c-0.2,0.2-0.5,0.4-0.6,0.6L63,23.7l0,0l0,0L60.5,26.2z M67.3,20.6
			c0.1-0.2,0.3-0.3,0.6-0.5c0.2-0.1,0.3-0.3,0.5-0.4c0.2,2.7,0.6,5.4,1,8.1c-1.9-1.1-3.6-2.4-5.2-3.9L67.3,20.6z M70.3,27.6
			c-0.5-3-0.9-6.1-1.1-9.1c0.1-0.3,0.2-0.6,0.1-1c-0.2-0.4-0.6-0.5-1-0.6c-0.1,0-0.2-0.1-0.3-0.1c-1.2-0.4-2.4-0.7-3.6-1l-1.2-0.3
			c-3.6-1-7.3-2-10.8-3.1c-3-0.9-6.1-1.8-9.2-2.6h0.1c0.7,0.1,1.4,0.3,2.1,0.4c9.3,1.7,18.8,2.4,28,3.1c-0.5,3.8-1.2,7.7-2,11.4
			C71.1,25.8,70.8,26.8,70.3,27.6z"/>
		<path class="st1" d="M65.9,192.8c-1.3-0.1-2.6-0.2-4-0.3c-0.2,0-0.4,0.1-0.4,0.3s0.1,0.4,0.3,0.4c1.4,0.1,2.7,0.2,4,0.3l0,0
			c0.2,0,0.4-0.2,0.4-0.4C66.3,193,66.1,192.8,65.9,192.8z"/>
		<path class="st1" d="M36.8,186.7c-1.2-0.5-2.5-1-3.7-1.5c-0.2-0.1-0.4,0-0.5,0.2s0,0.4,0.2,0.5c1.2,0.5,2.5,1,3.7,1.5h0.1
			c0.2,0,0.3-0.1,0.4-0.2C37.1,187,37,186.7,36.8,186.7z"/>
		<path class="st1" d="M56,191.8c-1.3-0.2-2.6-0.4-3.9-0.7c-0.2,0-0.4,0.1-0.4,0.3s0.1,0.4,0.3,0.4c1.3,0.3,2.6,0.5,4,0.7
			c0,0,0,0,0.1,0c0.2,0,0.3-0.1,0.4-0.3C56.4,192,56.2,191.8,56,191.8z"/>
		<path class="st1" d="M46.3,189.7c-1.3-0.3-2.6-0.7-3.8-1.1c-0.2-0.1-0.4,0.1-0.5,0.2c-0.1,0.2,0,0.4,0.2,0.5
			c1.3,0.4,2.6,0.8,3.9,1.1h0.1c0.2,0,0.3-0.1,0.4-0.3C46.6,190,46.5,189.8,46.3,189.7z"/>
		<path class="st1" d="M74,33.4c0.1,0,0.2,0,0.2-0.1c0.2-0.1,0.2-0.4,0-0.5c-0.9-1-1.7-2.1-2.4-3.1c-0.1-0.2-0.4-0.2-0.5-0.1
			c-0.2,0.1-0.2,0.3-0.1,0.5c0.7,1.1,1.6,2.2,2.5,3.2C73.8,33.3,73.9,33.4,74,33.4z"/>
		<path class="st1" d="M76.3,150.9c-0.2-0.1-0.4,0-0.5,0.2c-0.6,1.2-1.1,2.5-1.4,3.8c0,0.2,0.1,0.4,0.3,0.4h0.1
			c0.2,0,0.3-0.1,0.4-0.3c0.3-1.3,0.7-2.5,1.3-3.7C76.5,151.3,76.5,151,76.3,150.9z"/>
		<path class="st1" d="M75.9,192.6c-1.3,0.1-2.6,0.2-4,0.3c-0.2,0-0.4,0.2-0.4,0.4s0.2,0.4,0.4,0.4l0,0c1.4,0,2.7-0.1,4-0.3
			c0.2,0,0.4-0.2,0.3-0.4C76.3,192.7,76.1,192.6,75.9,192.6z"/>
		<path class="st1" d="M27.7,182.6c-1.2-0.6-2.4-1.2-3.5-1.9c-0.2-0.1-0.4,0-0.5,0.1c-0.1,0.2,0,0.4,0.1,0.5
			c1.2,0.7,2.4,1.3,3.5,1.9c0.1,0,0.1,0,0.2,0c0.1,0,0.3-0.1,0.3-0.2C28,183,27.9,182.7,27.7,182.6z"/>
		<path class="st1" d="M81.5,40c0.1,0,0.2-0.1,0.3-0.2c0.1-0.2,0.1-0.4-0.1-0.5c-1.1-0.7-2.2-1.5-3.2-2.4c-0.2-0.1-0.4-0.1-0.5,0
			c-0.1,0.2-0.1,0.4,0,0.5c1,0.9,2.1,1.7,3.2,2.4C81.3,39.9,81.4,40,81.5,40z"/>
		<path class="st1" d="M75.3,165c0.1,0.2,0.2,0.2,0.4,0.2h0.1c0.2-0.1,0.3-0.3,0.2-0.5c-0.5-1.2-0.8-2.5-1-3.8
			c0-0.2-0.2-0.3-0.4-0.3c-0.2,0-0.3,0.2-0.3,0.4C74.5,162.4,74.8,163.7,75.3,165z"/>
		<path class="st1" d="M106.7,47.6c-0.2,0-0.4,0.1-0.4,0.3c-0.1,1-0.2,2.1-0.3,3.2c0,0.3,0,0.5,0,0.8c0,0.2,0.2,0.4,0.4,0.4l0,0
			c0.2,0,0.4-0.2,0.4-0.4c0-0.3,0-0.5,0-0.8c0.1-1.1,0.1-2.1,0.3-3.2C107.1,47.8,106.9,47.6,106.7,47.6z"/>
		<path class="st1" d="M106.5,57.6c-0.2,0-0.4,0.2-0.3,0.4c0.1,1.3,0.3,2.7,0.6,4c0,0.2,0.2,0.3,0.4,0.3c0,0,0,0,0.1,0
			c0.2,0,0.3-0.2,0.3-0.4c-0.2-1.3-0.4-2.6-0.5-3.9C106.9,57.7,106.7,57.6,106.5,57.6z"/>
		<path class="st1" d="M105.6,175.8c0.1,0,0.1,0,0.2,0s0.3-0.1,0.3-0.2c0.7-1.2,1.2-2.4,1.7-3.7c0.1-0.2,0-0.4-0.2-0.5
			s-0.4,0-0.5,0.2c-0.4,1.2-1,2.4-1.6,3.6C105.3,175.5,105.4,175.7,105.6,175.8z"/>
		<path class="st1" d="M107.1,156.3c0.1,0.2,0.2,0.3,0.4,0.3h0.1c0.2-0.1,0.3-0.3,0.2-0.5c-0.4-1.3-1-2.5-1.7-3.7
			c-0.1-0.2-0.3-0.2-0.5-0.1c-0.2,0.1-0.2,0.3-0.1,0.5C106.2,153.8,106.7,155,107.1,156.3z"/>
		<path class="st1" d="M107.7,42.4C107.7,42.5,107.7,42.5,107.7,42.4c0.3,0,0.4-0.1,0.5-0.3c0.4-1.3,0.8-2.6,1.3-3.7
			c0.1-0.2,0-0.4-0.2-0.5s-0.4,0-0.5,0.2c-0.5,1.2-0.9,2.5-1.3,3.8C107.3,42.2,107.5,42.4,107.7,42.4z"/>
		<path class="st1" d="M129,27.3c0.1,0.3,0.1,0.6,0.1,0.9s0,0.7-0.1,1.2l-0.1,0.4c0,0.2,0.1,0.4,0.3,0.4h0.1c0.2,0,0.3-0.1,0.4-0.3
			c0-0.1,0.1-0.3,0.1-0.4c0.1-0.6,0.2-1,0.2-1.4s-0.1-0.8-0.2-1.1c-0.1-0.5-0.4-0.9-0.7-1.2c-0.1-0.2-0.4-0.2-0.5,0
			c-0.2,0.1-0.2,0.4,0,0.5C128.7,26.6,128.9,26.9,129,27.3z"/>
		<path class="st1" d="M119.4,26.9c0.1,0,0.1,0,0.2,0c1.2-0.6,2.4-1.1,3.7-1.4c0.2,0,0.3-0.3,0.3-0.5s-0.2-0.3-0.5-0.3
			c-1.3,0.3-2.6,0.8-3.8,1.4c-0.2,0.1-0.3,0.3-0.2,0.5C119.1,26.8,119.2,26.9,119.4,26.9z"/>
		<path class="st1" d="M98.6,145.3c-0.1,0.2,0,0.4,0.1,0.5c0.5,0.3,1,0.6,1.5,0.9c0.6,0.4,1.1,0.9,1.7,1.4c0.1,0.1,0.2,0.1,0.3,0.1
			c0.1,0,0.2,0,0.3-0.1c0.1-0.2,0.1-0.4,0-0.5c-0.6-0.5-1.1-1-1.7-1.4c-0.5-0.4-1-0.7-1.6-1C98.9,145,98.7,145.1,98.6,145.3z"/>
		<path class="st1" d="M0,163.1c-0.2-0.1-0.4-0.1-0.5,0.1c-0.1,0.2-0.1,0.4,0.1,0.5c1.1,0.8,2.1,1.6,3.1,2.5
			c0.1,0.1,0.2,0.1,0.2,0.1c0.1,0,0.2,0,0.3-0.1c0.1-0.2,0.1-0.4-0.1-0.5C2.1,164.8,1.1,164,0,163.1z"/>
		<path class="st1" d="M19.1,177.6c-1.1-0.7-2.1-1.4-3.3-2.3c-0.2-0.1-0.4-0.1-0.5,0.1c-0.1,0.2-0.1,0.4,0.1,0.5
			c1.1,0.8,2.2,1.6,3.3,2.3c0.1,0,0.1,0.1,0.2,0.1c0.1,0,0.2-0.1,0.3-0.2C19.3,178,19.3,177.8,19.1,177.6z"/>
		<path class="st1" d="M7.9,169.4c-0.2-0.1-0.4-0.1-0.5,0.1c-0.1,0.2-0.1,0.4,0.1,0.5c1,0.8,2.1,1.7,3.2,2.5
			c0.1,0.1,0.1,0.1,0.2,0.1c0.1,0,0.2,0,0.3-0.1c0.1-0.2,0.1-0.4-0.1-0.5C10,171,8.9,170.2,7.9,169.4z"/>
		<path class="st1" d="M79.7,147c0.1,0.1,0.2,0.1,0.3,0.1c0.1,0,0.2,0,0.2-0.1c1-0.8,2.2-1.4,3.4-1.9c0.2-0.1,0.3-0.3,0.2-0.5
			c-0.1-0.2-0.3-0.3-0.5-0.2c-1.3,0.5-2.5,1.2-3.5,2C79.6,146.6,79.5,146.8,79.7,147z"/>
		<path class="st1" d="M96.2,45.9c1.3,0.2,2.7,0.4,4,0.5l0,0c0.2,0,0.4-0.1,0.4-0.3s-0.1-0.4-0.3-0.4c-1.3-0.1-2.6-0.3-3.9-0.5
			c-0.2,0-0.4,0.1-0.4,0.3C95.8,45.7,96,45.8,96.2,45.9z"/>
		<path class="st1" d="M86.6,42.8c1.2,0.6,2.5,1.1,3.7,1.5h0.1c0.2,0,0.3-0.1,0.4-0.3s0-0.4-0.2-0.5c-1.2-0.4-2.5-0.9-3.7-1.5
			c-0.2-0.1-0.4,0-0.5,0.2C86.3,42.5,86.4,42.8,86.6,42.8z"/>
		<path class="st1" d="M88.9,143.5c0,0.2,0.2,0.4,0.4,0.3c1.3-0.1,2.6,0,3.9,0.2c0,0,0,0,0.1,0c0.2,0,0.3-0.1,0.4-0.3
			c0-0.2-0.1-0.4-0.3-0.4c-1.3-0.2-2.7-0.3-4.1-0.2C89,143.1,88.9,143.2,88.9,143.5z"/>
		<path class="st1" d="M145.7,165.8l-0.1,0.1c-0.9,0.8-1.9,1.6-2.9,2.4c-0.2,0.1-0.2,0.4-0.1,0.5c0.1,0.1,0.2,0.2,0.3,0.2
			s0.2,0,0.2-0.1c1-0.8,2-1.6,3-2.4l0.1-0.1c0.2-0.1,0.2-0.4,0-0.5C146.1,165.7,145.8,165.7,145.7,165.8z"/>
		<path class="st1" d="M150.3,99.3c0.1,0,0.2,0,0.3-0.1c0.1-0.2,0.1-0.4,0-0.5c-1-0.9-2-1.8-3.1-2.6c-0.2-0.1-0.4-0.1-0.5,0.1
			s-0.1,0.4,0.1,0.5c1,0.8,2.1,1.6,3,2.5C150.1,99.3,150.2,99.3,150.3,99.3z"/>
		<path class="st1" d="M142.3,92.9c-1.1-0.6-2.3-1.1-3.7-1.7c-0.2-0.1-0.4,0-0.5,0.2s0,0.4,0.2,0.5c1.3,0.6,2.5,1.1,3.6,1.7
			c0.1,0,0.1,0,0.2,0c0.1,0,0.3-0.1,0.3-0.2C142.6,93.2,142.5,93,142.3,92.9z"/>
		<path class="st1" d="M127.1,35c-0.2-0.1-0.4-0.1-0.5,0.1c-0.7,1-1.6,2-2.5,3c-0.1,0.1-0.2,0.4,0,0.5c0.1,0.1,0.2,0.1,0.3,0.1
			s0.2,0,0.3-0.1c1-1,1.9-2,2.6-3.1C127.3,35.4,127.2,35.1,127.1,35z"/>
		<path class="st1" d="M152.5,158.7c-0.8,1-1.7,2.1-2.6,3c-0.1,0.2-0.1,0.4,0,0.5s0.2,0.1,0.3,0.1s0.2,0,0.3-0.1
			c0.9-1,1.8-2,2.6-3.1c0.1-0.2,0.1-0.4-0.1-0.5C152.9,158.5,152.6,158.5,152.5,158.7z"/>
		<path class="st1" d="M133,89h-0.1c-1.2-0.4-2.4-0.9-3.6-1.3c-0.2-0.1-0.4,0-0.5,0.2s0,0.4,0.2,0.5c1.2,0.5,2.4,0.9,3.6,1.4h0.1
			h0.1c0.2,0,0.3-0.1,0.4-0.2C133.3,89.3,133.2,89.1,133,89z"/>
		<path class="st1" d="M137.6,171.6c-1.1,0.7-2.3,1.3-3.5,1.9c-0.2,0.1-0.3,0.3-0.2,0.5c0.1,0.1,0.2,0.2,0.3,0.2s0.1,0,0.2,0
			c1.2-0.6,2.4-1.3,3.5-1.9c0.2-0.1,0.2-0.3,0.1-0.5C138,171.6,137.8,171.5,137.6,171.6z"/>
		<path class="st1" d="M128.7,175.9c-1.2,0.5-2.5,0.9-3.8,1.3c-0.2,0.1-0.3,0.3-0.2,0.5c0,0.2,0.2,0.3,0.4,0.3h0.1
			c1.3-0.4,2.6-0.8,3.8-1.3c0.2-0.1,0.3-0.3,0.2-0.5C129.1,176,128.9,175.9,128.7,175.9z"/>
		<path class="st1" d="M163.2,125.7L163.2,125.7c0.2,0,0.4-0.2,0.4-0.4c-0.1-1.3-0.3-2.7-0.6-4c0-0.2-0.2-0.3-0.4-0.3
			s-0.3,0.2-0.3,0.4c0.3,1.3,0.5,2.6,0.6,3.9C162.8,125.5,163,125.7,163.2,125.7z"/>
		<path class="st1" d="M161.9,140.8c-0.2-0.1-0.4,0.1-0.5,0.3c-0.3,1.3-0.8,2.5-1.2,3.8c-0.1,0.2,0,0.4,0.2,0.5h0.1
			c0.2,0,0.3-0.1,0.4-0.2c0.5-1.3,0.9-2.6,1.2-3.8C162.2,141.1,162.1,140.9,161.9,140.8z"/>
		<path class="st1" d="M163.4,130.9c-0.2,0-0.4,0.2-0.4,0.4c-0.1,1.3-0.2,2.6-0.4,3.9c0,0.2,0.1,0.4,0.3,0.4c0,0,0,0,0.1,0
			c0.2,0,0.3-0.1,0.4-0.3c0.2-1.3,0.3-2.7,0.4-4C163.7,131.1,163.6,130.9,163.4,130.9z"/>
		<path class="st1" d="M158.3,150.1c-0.2-0.1-0.4,0-0.5,0.2c-0.6,1.2-1.2,2.3-1.9,3.5c-0.1,0.2-0.1,0.4,0.1,0.5
			c0.1,0,0.1,0.1,0.2,0.1c0.1,0,0.2-0.1,0.3-0.2c0.7-1.1,1.4-2.3,2-3.5C158.6,150.5,158.5,150.2,158.3,150.1z"/>
		<path class="st1" d="M156.7,107c0.1,0,0.1,0,0.2-0.1c0.2-0.1,0.2-0.3,0.1-0.5c-0.7-1.1-1.5-2.2-2.3-3.3c-0.1-0.2-0.4-0.2-0.5-0.1
			c-0.2,0.1-0.2,0.4-0.1,0.5c0.8,1,1.6,2.1,2.3,3.2C156.4,106.9,156.5,107,156.7,107z"/>
		<path class="st1" d="M161,115.9h0.1c0.2-0.1,0.3-0.3,0.2-0.5c-0.4-1.3-1-2.5-1.5-3.7c-0.1-0.2-0.3-0.3-0.5-0.2
			c-0.2,0.1-0.3,0.3-0.2,0.5c0.5,1.2,1,2.4,1.5,3.7C160.7,115.9,160.9,115.9,161,115.9z"/>
		<path class="st1" d="M81.4,172.8c-0.9-0.9-1.8-1.9-2.6-2.9c-0.1-0.2-0.4-0.2-0.5-0.1c-0.2,0.1-0.2,0.4-0.1,0.5
			c0.8,1.1,1.7,2.1,2.7,3c0.1,0.1,0.2,0.1,0.3,0.1c0.1,0,0.2,0,0.3-0.1C81.5,173.2,81.5,173,81.4,172.8z"/>
		<path class="st1" d="M102,180.2c-0.8,1-1.8,1.9-2.8,2.8c-0.2,0.1-0.2,0.4,0,0.5c0.1,0.1,0.2,0.1,0.3,0.1c0.1,0,0.2,0,0.3-0.1
			c1-0.9,2-1.9,2.8-2.9c0.1-0.2,0.1-0.4,0-0.5C102.4,180,102.2,180,102,180.2z"/>
		<path class="st1" d="M109.3,180.2c-0.9,0.1-1.9,0.1-2.9,0.1c-0.4,0-0.7,0-1.1,0c-0.2,0-0.4,0.2-0.4,0.4s0.2,0.4,0.4,0.4l0,0
			c0.4,0,0.8,0,1.1,0c1,0,1.9-0.1,2.9-0.1c0.2,0,0.4-0.2,0.3-0.4C109.7,180.3,109.6,180.2,109.3,180.2z"/>
		<path class="st1" d="M123.8,85.3c-1.3-0.6-2.4-1.3-3.4-2c-0.2-0.1-0.4-0.1-0.5,0.1s-0.1,0.4,0.1,0.5c1.1,0.7,2.2,1.4,3.5,2
			c0.1,0,0.1,0,0.2,0c0.1,0,0.3-0.1,0.3-0.2C124.1,85.6,124,85.3,123.8,85.3z"/>
		<path class="st1" d="M94.6,186.6c-1.1,0.7-2.3,1.3-3.5,1.9c-0.2,0.1-0.3,0.3-0.2,0.5c0.1,0.1,0.2,0.2,0.3,0.2c0.1,0,0.1,0,0.2,0
			c1.2-0.6,2.4-1.3,3.5-2c0.2-0.1,0.2-0.3,0.1-0.5C95,186.5,94.7,186.4,94.6,186.6z"/>
		<path class="st1" d="M85.6,190.7c-1.2,0.4-2.5,0.7-3.8,1c-0.2,0-0.3,0.2-0.3,0.4s0.2,0.3,0.4,0.3H82c1.3-0.3,2.6-0.6,3.9-1
			c0.2-0.1,0.3-0.3,0.2-0.5C86,190.7,85.8,190.6,85.6,190.7z"/>
		<path class="st1" d="M89.8,177.9c-1.3-0.5-2.5-1-3.6-1.6c-0.2-0.1-0.4,0-0.5,0.1c-0.1,0.2,0,0.4,0.1,0.5c1.2,0.6,2.4,1.2,3.7,1.7
			h0.1c0.2,0,0.3-0.1,0.4-0.2C90.1,178.2,90,177.9,89.8,177.9z"/>
		<path class="st1" d="M108.6,166.4C108.7,166.4,108.7,166.4,108.6,166.4c0.2,0,0.4-0.1,0.4-0.3c0.1-0.7,0.1-1.4,0.1-2.1
			c0-0.6,0-1.3-0.1-1.9c0-0.2-0.2-0.4-0.4-0.3c-0.2,0-0.4,0.2-0.3,0.4c0,0.6,0.1,1.2,0.1,1.9s0,1.4-0.1,2.1
			C108.3,166.2,108.4,166.3,108.6,166.4z"/>
		<path class="st1" d="M99.4,180.8c0.2,0,0.4-0.1,0.4-0.3s-0.1-0.4-0.3-0.4c-1.3-0.1-2.7-0.3-3.9-0.6c-0.2,0-0.4,0.1-0.4,0.3
			s0.1,0.4,0.3,0.4C96.6,180.5,98,180.7,99.4,180.8C99.3,180.8,99.4,180.8,99.4,180.8z"/>
		<path class="st1" d="M115.6,80.1c0.1,0,0.2,0,0.3-0.1c0.2-0.1,0.2-0.4,0-0.5c-0.9-0.9-1.7-2-2.5-3c-0.1-0.2-0.4-0.2-0.5-0.1
			c-0.2,0.1-0.2,0.4-0.1,0.5c0.8,1.1,1.7,2.2,2.6,3.1C115.4,80,115.5,80.1,115.6,80.1z"/>
		<path class="st1" d="M109,67.6c-0.1-0.2-0.3-0.3-0.5-0.2c-0.2,0.1-0.3,0.3-0.2,0.5c0.4,1.3,0.9,2.6,1.5,3.8
			c0.1,0.1,0.2,0.2,0.3,0.2s0.1,0,0.2,0c0.2-0.1,0.3-0.3,0.2-0.5C109.9,70.1,109.4,68.9,109,67.6z"/>
		<path class="st1" d="M119.8,41.8c-0.1-0.2-0.3-0.2-0.5-0.1c-1.1,0.6-2.3,1.2-3.5,1.7c-0.2,0.1-0.3,0.3-0.2,0.5
			c0.1,0.1,0.2,0.2,0.3,0.2h0.1c1.3-0.5,2.5-1.1,3.6-1.8C119.8,42.2,119.9,42,119.8,41.8z"/>
		<path class="st1" d="M119.2,178.8c-1.3,0.3-2.6,0.5-3.9,0.7c-0.2,0-0.3,0.2-0.3,0.4s0.2,0.3,0.4,0.3c0,0,0,0,0.1,0
			c1.3-0.2,2.6-0.5,4-0.7c0.2,0,0.3-0.2,0.3-0.4C119.6,178.9,119.4,178.7,119.2,178.8z"/>
		<path class="st1" d="M114.8,29.8c-0.1-0.1-0.4-0.2-0.5,0c-1,0.9-1.9,2-2.7,3.1c-0.1,0.2-0.1,0.4,0.1,0.5c0.1,0,0.1,0.1,0.2,0.1
			c0.1,0,0.2-0.1,0.3-0.2c0.8-1.1,1.6-2.1,2.6-3C114.9,30.1,114.9,29.9,114.8,29.8z"/>
		<path class="st1" d="M110.1,45.1c-1.3,0.3-2.6,0.4-3.9,0.6c-0.2,0-0.4,0.2-0.3,0.4c0,0.2,0.2,0.3,0.4,0.3l0,0
			c1.3-0.1,2.7-0.3,4-0.6c0.2,0,0.3-0.2,0.3-0.4C110.5,45.2,110.3,45,110.1,45.1z"/>
	</g>
</g>
</svg>
